# xmcd
#
# Track frame offsets: 
#        182
#        37035
#        48897
#        66145
#        82690
#        118567
#        140052
#        162230
#        178900
#        212947
#
# Disc length: 2962 seconds
#
# Revision: 8
# Processed by: cddbd v1.5.2PL0 Copyright (c) Steve Scherf et al.
# Submitted via: ExactAudioCopy v0.99pb5
#
DISCID=8b0b900a
DTITLE=Patricia Kaas - Carnets de scène (live) - CD 2
DYEAR=1991
DGENRE=Chanson
TTITLE0=Regarde les riches
TTITLE1=Summertime
TTITLE2=Patou blues
TTITLE3=Kennedy Rose
TTITLE4=Mademoiselle chante le blues
TTITLE5=Bessie
TTITLE6=Les hommes qui passent
TTITLE7=Une dernière semaine à New York
TTITLE8=Quand Jimmy dit
TTITLE9=Un dernier blues
EXTD=YEAR: 1991
EXTT0=
EXTT1=
EXTT2=
EXTT3=
EXTT4=
EXTT5=
EXTT6=
EXTT7=
EXTT8=
EXTT9=
PLAYORDER=
